<?xml version="1.0" encoding="UTF-8"?>
<svg width="50" height="50" viewBox="0 0 50 50" xmlns="http://www.w3.org/2000/svg">
  <circle cx="5" cy="5" r="1.5" fill="#ffffff" opacity="0.3"/>
  <circle cx="15" cy="5" r="1.5" fill="#ffffff" opacity="0.3"/>
  <circle cx="25" cy="5" r="1.5" fill="#ffffff" opacity="0.3"/>
  <circle cx="35" cy="5" r="1.5" fill="#ffffff" opacity="0.3"/>
  <circle cx="45" cy="5" r="1.5" fill="#ffffff" opacity="0.3"/>
  
  <circle cx="5" cy="15" r="1.5" fill="#ffffff" opacity="0.3"/>
  <circle cx="15" cy="15" r="1.5" fill="#ffffff" opacity="0.3"/>
  <circle cx="25" cy="15" r="1.5" fill="#ffffff" opacity="0.3"/>
  <circle cx="35" cy="15" r="1.5" fill="#ffffff" opacity="0.3"/>
  <circle cx="45" cy="15" r="1.5" fill="#ffffff" opacity="0.3"/>
  
  <circle cx="5" cy="25" r="1.5" fill="#ffffff" opacity="0.3"/>
  <circle cx="15" cy="25" r="1.5" fill="#ffffff" opacity="0.3"/>
  <circle cx="25" cy="25" r="1.5" fill="#ffffff" opacity="0.3"/>
  <circle cx="35" cy="25" r="1.5" fill="#ffffff" opacity="0.3"/>
  <circle cx="45" cy="25" r="1.5" fill="#ffffff" opacity="0.3"/>
  
  <circle cx="5" cy="35" r="1.5" fill="#ffffff" opacity="0.3"/>
  <circle cx="15" cy="35" r="1.5" fill="#ffffff" opacity="0.3"/>
  <circle cx="25" cy="35" r="1.5" fill="#ffffff" opacity="0.3"/>
  <circle cx="35" cy="35" r="1.5" fill="#ffffff" opacity="0.3"/>
  <circle cx="45" cy="35" r="1.5" fill="#ffffff" opacity="0.3"/>
  
  <circle cx="5" cy="45" r="1.5" fill="#ffffff" opacity="0.3"/>
  <circle cx="15" cy="45" r="1.5" fill="#ffffff" opacity="0.3"/>
  <circle cx="25" cy="45" r="1.5" fill="#ffffff" opacity="0.3"/>
  <circle cx="35" cy="45" r="1.5" fill="#ffffff" opacity="0.3"/>
  <circle cx="45" cy="45" r="1.5" fill="#ffffff" opacity="0.3"/>
</svg>
